<svg width="54" height="47" viewBox="0 0 54 47" fill="none" xmlns="http://www.w3.org/2000/svg">
<path d="M27.3 27.95L30.85 27.9V29.95C30.45 29.8833 29.9833 29.85 29.45 29.85C28.9167 29.85 28.3167 29.8833 27.65 29.95C27.65 32.5167 26.4167 35.1167 23.95 37.75C21.4833 40.3833 18.5 42.5167 15 44.15C11.5333 45.8167 8.3 46.65 5.3 46.65C3.73333 46.65 2.45 46.25 1.45 45.45C0.483333 44.65 -7.07805e-08 43.6 -7.07805e-08 42.3C-7.07805e-08 40.3667 1.28333 38.35 3.85 36.25C6.41667 34.15 9.41667 32.4167 12.85 31.05C16.2833 29.6833 19.3833 28.8833 22.15 28.65C21.8167 28.15 21.3 27.7167 20.6 27.35C19.9 26.9833 18.4667 26.4167 16.3 25.65C14.1333 24.85 12.6 23.9833 11.7 23.05C10.8 22.0833 10.35 20.7333 10.35 19C10.35 17.2667 11.2833 15.2833 13.15 13.05C15.0167 10.8167 17.2167 8.95 19.75 7.45C22.3167 5.91667 24.5667 5.15 26.5 5.15C27.3667 5.15 28.0833 5.46667 28.65 6.1C29.2167 6.7 29.5 7.45 29.5 8.35C29.5 9.81666 28.6167 11.6667 26.85 13.9C25.0833 16.1 23.1167 17.7833 20.95 18.95L19.75 17.25C21.05 16.5833 22.1833 15.55 23.15 14.15C24.15 12.7167 24.65 11.4833 24.65 10.45C24.65 9.41667 24.1 8.9 23 8.9C21.4333 8.9 19.6333 9.88333 17.6 11.85C15.6 13.7833 14.6 15.6 14.6 17.3C14.6 18.4667 14.9 19.3833 15.5 20.05C16.1 20.7167 17.6167 21.55 20.05 22.55C22.4833 23.5167 24.2167 24.3833 25.25 25.15C26.2833 25.8833 26.9667 26.8167 27.3 27.95ZM5 41C5 42.6 6.3 43.4 8.9 43.4C10.3333 43.4 12.1833 42.8667 14.45 41.8C16.75 40.7667 18.7667 39.3 20.5 37.4C22.2667 35.5333 23.15 33.6167 23.15 31.65C23.15 31.4167 23.1 31.0667 23 30.6C18.4333 31.0333 14.2833 32.3167 10.55 34.45C6.85 36.5833 5 38.7667 5 41ZM52.1477 33.35L53.2977 34.3C51.8977 36.6333 50.081 37.8 47.8477 37.8C45.9143 37.8 44.9477 36.85 44.9477 34.95C44.9477 33.85 45.4143 32.1 46.3477 29.7C47.3143 27.2667 47.7977 25.6667 47.7977 24.9C47.7977 23.9333 47.181 23.45 45.9477 23.45C44.7143 23.45 43.031 24.7833 40.8977 27.45C38.7977 30.0833 37.031 33.15 35.5977 36.65L32.6477 35.6C34.381 26.9 38.9143 15.25 46.2477 0.649997L48.6977 1.45C44.9977 8.85 42.3477 14.7333 40.7477 19.1C39.081 23.6333 37.831 27.3833 36.9977 30.35C39.5643 26.1167 41.7643 23.1833 43.5977 21.55C45.4643 19.9167 47.081 19.1 48.4477 19.1C50.9143 19.1 52.1477 19.9833 52.1477 21.75C52.1477 22.85 51.531 24.8167 50.2977 27.65C49.0643 30.4833 48.4477 32.3667 48.4477 33.3C48.4477 34.2333 48.8977 34.7 49.7977 34.7C50.2643 34.7 51.0477 34.25 52.1477 33.35Z" fill="white"/>
</svg>
